<svg width="261" height="502" viewBox="0 0 261 502" fill="none" xmlns="http://www.w3.org/2000/svg">
<path d="M300.544 55.2839C296.081 53.4284 290.939 50.9842 285.866 48.4333C282.984 46.9051 279.27 45.407 275.798 44.1758C273.461 43.364 274.918 42.6231 273.261 42.0315C269.966 40.8872 266.593 40.8217 263.115 39.8091C261.959 39.4703 263.679 38.0234 262.446 37.7062C255.653 35.9925 248.862 35.7795 241.591 34.9075C229.028 33.416 216.283 32.5632 203.441 31.9575C180.546 30.9074 157.298 32.7315 136.196 40.0617C133.22 41.1152 130.088 42.2701 127.051 43.6034C119.326 46.972 111.013 52.3595 104.664 58.4247C103.637 59.4093 105.241 59.9758 105.116 60.2434C103.155 64.4154 102.248 61.2627 99.906 62.8357C90.6073 69.1487 81.6869 78.2365 74.7122 86.742C71.7497 90.3707 77.067 88.8595 72.6949 91.2513C72.3932 91.4209 72.0245 89.4895 71.0405 90.3346C69.0651 92.0322 66.1182 95.6312 64.3702 97.5667C64.1592 97.7993 63.9675 98.0065 63.7985 98.1805C60.9694 101.132 60.561 101.685 58.219 104.785C55.0345 109.023 50.9426 114.029 48.4666 119.319C47.9458 120.445 50.1306 119.776 49.4431 121.629C48.743 123.47 46.3111 128.06 45.237 129.514C44.1491 130.957 43.3206 129.751 42.9259 129.915C39.5874 131.277 40.2909 138.328 40.0994 139.074C36.9613 149.818 33.0211 159.057 29.5482 168.922C28.6067 171.574 27.8241 174.317 27.2632 177.175C25.3459 186.782 25.7194 197.458 26.3289 207.045C26.9793 217.64 27.8172 226.979 29.5376 237.579C29.6578 238.323 29.8011 239.087 29.9641 239.85C30.1988 240.933 31.7862 239.298 32.0791 240.587C35.3822 254.385 42.0835 268.72 47.6664 283.669C48.2337 285.172 45.8552 284.016 46.331 285.557C47.287 288.61 48.3289 292.296 49.5933 295.973C51.9315 303.206 56.9281 309.913 62.9723 309.518C66.5046 314.353 71.6463 319.701 75.076 324.447C77.3047 327.51 73.3831 326.641 77.429 328.913C78.3447 329.419 78.2743 327.351 79.5702 328.196C81.3693 329.365 83.1771 330.646 85.0111 331.96C88.2336 334.261 92.0375 336.42 95.9935 337.695C97.1965 338.076 97.49 336.645 97.9141 336.562C101.377 335.914 104.728 340.926 105.727 341.561C113.063 346.324 119.479 347.583 127.261 350.011C129.084 350.575 127.482 348.103 129.245 348.576C133.01 349.592 136.839 350.67 140.657 351.824C145.962 353.429 151.266 355.055 156.4 356.742C158.347 357.383 156.158 358.546 157.073 358.933C161.136 360.608 162.702 357.807 166.612 359.262C167.441 359.563 166.693 360.83 166.821 361.01C168.824 363.838 171.593 360.895 172.231 360.934C180.369 361.342 184.976 365.605 192.896 366.131C193.839 366.187 191.956 364.18 194.587 364.44C203.237 365.281 212.139 366.143 221.06 367.083C230.039 368.034 238.953 368.67 247.545 368.629C250.179 368.6 248.444 370.087 248.62 370.234C251.619 372.495 252.98 368.859 253.782 368.614C260.183 366.782 267.149 367.788 269.908 362.408C270.559 362.203 271.208 361.984 271.846 361.756C293.731 353.52 311.335 335.14 328.587 318.109C331.133 315.601 333.406 312.853 335.373 309.799C335.556 309.504 336.813 310.781 337.178 310.17C341.228 302.552 337.977 303.04 335.935 297.273C335.388 295.892 339.703 292.031 340.015 291.607C341.194 290.259 343.524 292.013 343.773 291.544C344.835 289.422 342.918 288.416 341.017 287.057C339.334 286.206 337.629 285.689 337.337 283.764C337.33 283.623 338.918 283.965 339.01 283.573C339.289 282.29 338.425 281.172 338.609 279.798C339.01 276.653 342.465 274.186 338.606 270.392C338.093 269.915 334.091 272.416 332.541 267.912C331.955 266.097 328.471 258.34 327.697 256.033C326.955 253.724 329.018 254.583 329.005 254.401C328.013 247.635 329.815 249.531 331.028 245.266C332.195 240.973 326.324 244.928 325.027 244.074C323.731 243.211 323.038 238.208 322.989 236.873C322.96 235.567 324.483 236.433 324.291 235.354C322.942 228.161 319.792 234.241 317.739 232.712C314.362 230.237 314.609 226.512 314.395 222.887C314.3 221.314 314.139 219.822 313.523 218.44C312.973 217.212 312.493 218.745 311.806 217.785C309.082 214.02 308.934 210.727 304.656 207.296C303.956 206.719 298.991 205.302 299.025 201.824C299.026 201.317 300.735 201.316 299.677 199.638C298.107 197.109 294.566 193.076 291.88 191.332C289.911 190.048 290.531 193.385 288.766 191.027C287.959 189.984 290.613 190.535 288.999 188.644C287.414 186.712 282.183 183.185 280.073 182.063C277.989 180.9 278.315 182.967 278.094 182.963C276.797 182.903 272.497 181.562 272.136 181.413C265.697 178.374 259.138 175.739 252.471 173.224C241.036 168.913 228.633 166.689 215.821 166.959C214.25 166.994 215.262 168.723 215.022 168.746C209.672 169.39 213.951 164.894 210.156 163.358C210.704 166.826 208.475 166.179 204.675 166.634C202.842 166.86 203.875 168.18 203.71 168.321C201.064 170.422 199.102 167.866 198.585 167.346C196.704 165.435 194.841 167.865 193.547 166.605C192.247 165.356 194.991 163.261 191.309 163.48C190.346 164.775 193.245 167.862 190.494 168.54C185.883 169.682 179.41 170.123 172.842 170.271C165.55 170.273 158.29 172.427 154.461 174.589C147.605 178.529 145.948 180.749 142.243 183.694C135.742 189.424 139.704 188.767 137.211 193.514C134.84 198.375 131.693 192.796 130.202 192.645C128.711 192.515 129.254 193.985 128.114 194.37C126.976 194.756 127.515 192.521 125.952 194.251C124.356 195.994 122.731 202.507 123.429 203.903C124.872 206.87 128.846 206.117 124.775 210.589C124.54 210.847 123.819 209.071 122.983 210.105C122.74 210.408 122.499 210.714 122.259 211.021C116.211 218.675 112.919 228.794 109.585 238.342C109.107 239.719 107.721 238.056 107.423 238.863C104.413 247.268 107.975 244.803 110.228 250.099C106.203 248.228 103.054 250.365 101.915 257.009C101.244 260.998 103.223 260.6 104.133 263.387C104.411 264.2 102.709 266.839 103.514 267.469C106.141 269.569 109.713 267.389 107.487 273.984C107.385 274.274 105.945 273.107 105.708 274.126C105.62 274.502 105.546 274.863 105.486 275.21C104.52 280.869 107.069 282.278 106.729 289.037C106.439 294.65 103.908 304.514 103.445 310.929C98.5894 310.634 99.5502 316.863 102.909 319.327C102.76 323.499 103.041 327.993 102.767 332.034C102.675 333.42 101.23 332.583 101.086 332.764C98.8421 335.599 102.223 337.235 102.414 338.108C104.275 346.85 103.098 355.204 107.061 361.903C107.399 362.406 107.777 362.903 108.195 363.387C108.425 363.648 111.564 362.526 110.477 365.639C110.424 365.879 107.624 364.07 109.591 367.739C111.53 371.382 115.187 379.071 120.443 382.59C121.705 383.461 126.188 384.34 126.682 387.968C126.746 388.459 125.741 388.802 125.751 389.595C125.798 392.134 128.961 390.511 128.421 394.106C127.97 397.201 129.168 401.2 133.254 404.149C133.934 404.641 134.689 405.098 135.522 405.508C135.706 405.604 138.64 404.686 140.03 406.044C142.255 408.231 145.169 411.592 147.684 413.693C148.876 414.689 149.197 412.765 149.423 412.915C158.017 418.84 163.026 424.423 172.281 430.842C173.993 432.039 180.181 432.945 182.885 436.319C185.934 440.01 178.117 445.529 188.537 448.105C192.865 449.126 201.302 441.319 206.413 448.727C210.772 449.736 214.931 450.946 219.059 452.167C228.116 454.834 236.956 457.814 246.786 458.701C247.438 458.763 250.033 456.362 251.496 456.731C253.647 457.28 254.553 458.877 256.084 459.309C262.512 461.157 268.718 461.319 274.965 462.863C277.339 463.447 276.199 464.64 279.033 465.336C281.856 466.029 284.154 464.63 287.813 466.342C290.575 467.641 292.687 471.98 296.444 473.256C297.396 469.638 300.027 470.291 304.95 470.376C305.888 470.389 305.211 468.904 305.669 468.845C307.576 468.583 308.941 469.995 310.761 469.659C311.199 469.579 311.5 468.338 311.872 468.202C313.593 467.576 315.512 468.355 317.011 469.328C317.039 469.334 317.124 469.357 317.152 469.364C318.51 470.303 319.504 471.376 319.806 471.705C322.308 474.376 324.131 473.168 326.239 474.549C328.298 475.92 324.65 475.843 327.177 477.042C332.47 479.543 339.593 481.47 345.119 483.308C347.344 484.04 346.347 481.929 346.677 481.996C351.395 483.059 355.43 486.369 359.088 484.079C359.243 493.484 362.146 484.221 367.993 488.424C368.466 488.769 367.501 492.852 365.39 492.662C363.272 492.469 360.814 490.142 357.791 490.062C357.087 490.038 352.138 492.421 351.582 492.484C347.123 492.906 348.497 486.846 348.402 486.452C347.165 482.165 341.302 484.703 340.049 484.621C334.171 484.182 329.743 481.968 324.861 481.548C321.674 481.271 320.278 485.1 317.936 484.312C316.218 483.736 314.87 483.007 313.608 482.214L313.982 482.309C309.547 479.711 307.087 476.476 300.339 478.91C298.503 479.578 299.14 484.263 294.077 479.575C293.771 479.283 290.114 475.213 287.18 476.643C286.812 476.823 286.547 478.09 286.109 478.106C283.173 478.187 281.545 476.779 278.402 476.601C275.269 476.426 271.458 476.352 268.083 475.167C266.05 474.455 263.88 471.512 263.007 470.716C260.547 468.436 256.912 470.49 255.611 468.092C254.292 465.679 258.418 463.376 254.091 461.044C253.189 464.288 252.044 467.569 251.03 470.807C240.878 468.413 231.122 465.079 220.798 462.603C219.512 462.295 220.367 464.382 218.985 464.097C217.995 463.891 216.993 463.631 216.071 463.358C211.34 461.961 207.161 459.875 201.98 458.575C197.151 457.37 191.308 457.202 186.215 455.526C184.758 450.74 177.209 448.651 172.398 445.581C170.717 444.52 171.333 443.682 170.285 442.704C166.35 438.995 166.767 443.153 165.23 442.869C158.631 441.497 162.318 434.746 156.354 430.825C156.056 430.64 149.841 431.184 149.154 430.968C144.837 429.774 149.467 429.421 147.611 427.605C144.248 424.265 142.396 421.475 137.498 418.773C136.07 417.994 131.473 417.288 130.582 413.71C130.463 413.241 131.56 412.413 131.377 412.13C130.282 410.489 129.237 409.697 128.178 409.313C126.041 408.561 123.897 409.6 121.631 408.708C118.24 407.369 116.732 401.588 116.624 400.238C116.318 396.739 118.758 401.115 119.018 401.065C122.071 400.533 119.144 398.162 117.343 395.924C120.099 392.767 117.227 390.026 115.467 393.603C115.286 394.01 117.09 395.38 117.343 395.924C112.652 396.916 109.116 393.886 108.794 387.572C108.682 384.603 111.634 385.067 106.688 379.969C104.478 377.58 102.9 380.309 100.525 378.267C97.6971 375.77 95.562 371.759 94.1424 367.064C92.7095 362.122 92.7003 358.668 91.8863 355.424C91.3174 352.963 90.1642 355.633 89.732 353.967C88.6014 349.507 89.3492 345.484 88.3774 341.13C88.2879 340.73 86.725 341.859 86.592 340.462C85.6086 330.01 86.5377 320.94 86.8784 310.242C87.024 305.082 86.6794 295.754 87.3629 290.435C88.0265 284.976 89.6245 278.892 90.9963 273.241C91.9339 269.394 92.7257 265.718 92.9707 262.525C93.3775 257.438 91.5893 258.269 90.8296 255.928C89.3522 251.348 94.6091 244.535 95.4191 243.676C95.4391 243.643 94.9685 248.103 96.2518 245.93C98.2477 244.908 95.4163 243.731 95.4191 243.676C95.8984 243.086 98.1981 234.395 98.3979 232.554C98.4763 231.556 96.8271 231.698 96.8994 231.179C98.3167 221.529 101.081 211.367 107.309 201.687C108.697 199.566 110.157 197.463 111.703 195.38C111.847 195.218 113.131 196.446 113.452 196.052C117.974 190.609 118.875 185.64 121.756 179.977C124.654 174.322 128.731 170.68 133.598 170.244C136.885 166.546 143.63 163.161 147.722 161.849C151.753 160.518 150.916 157.295 151.244 157.041C158.206 152.315 164.722 151.338 171.532 151.338C174.121 151.411 176.915 151.491 180.201 151.366C184.916 151.182 194.389 150.124 199.666 149.598C203.828 149.164 206.369 149.915 210.254 149.398C210.781 149.33 210.249 147.815 210.41 147.757C214.805 145.963 212.669 149.661 213.56 150.328C216.793 152.786 218.689 154.076 224.315 153.265C225.587 153.076 229.802 148.041 232.317 147.996C235.546 147.948 234.117 149.7 237.5 149.671C237.791 149.675 237.884 148.487 239.958 148.848C245.93 149.893 252.284 151.553 258.635 153.768C262.065 154.977 265.571 156.223 269.097 157.483C270.373 157.949 269.39 155.58 271.261 156.237C280.038 159.289 290.092 164.345 297.53 170.926C299.354 172.544 297.343 172.689 297.53 173.311C298.628 177.038 304.125 177.283 304.766 177.789C318.504 188.283 323.37 200.682 331.654 213.556C332.02 214.131 332.394 214.705 332.777 215.28C333.242 215.95 339.541 219.976 338.097 224.013C338.003 224.285 336.474 228.3 339.582 229.553C339.776 229.63 340.434 227.28 341.707 230.143C342.979 233.008 346.239 237.056 346.479 241.77C346.572 243.29 345.046 247.524 349.08 250.251C349.354 250.39 357.287 254.063 354.499 257.838C354.029 258.454 350.004 259.614 353.859 263.604C354.597 264.38 354.846 262.343 356.321 264.637C358.572 268.279 359.303 273.509 362.267 279.904C362.597 280.806 365.035 283.517 364.461 289.331C364.361 289.957 364.069 290.608 363.477 291.216C363.098 291.608 361.773 290.66 361.479 292.09C360.114 298.877 359.793 308.51 355.107 316.844C353.442 319.727 352.096 317.267 350.058 319.913C348.118 322.472 344.292 327.089 342.665 330.186C342.609 330.314 342.558 330.441 342.512 330.565C341.488 333.336 346.231 333.428 343.674 336.778C332.39 351.326 317.582 362.495 301.479 372.858C299.049 374.383 301.789 374.19 298.17 376.484C293.781 379.218 288.168 382.527 281.513 385.357C267.465 391.449 251.451 393.005 242.5 391.455C231.876 389.518 245.035 387.545 237.084 386.791C233.328 386.4 229.123 390.474 228.172 390.566C224.854 390.928 221.931 390.8 219.183 390.489C214.674 389.968 210.586 388.991 205.711 388.874C204.118 388.834 205.499 390.692 204.142 390.637C199.507 390.466 194.733 389.156 190.306 388.732C188.314 388.543 188.513 389.886 186.696 389.542C182.348 388.727 178.552 387.609 174.497 385.707C174.13 385.534 176.993 384.356 173.79 383.77C168.595 382.817 162.401 380.442 156.187 380.381C154.346 380.365 153.617 383.276 150.257 380.39C149.553 379.779 151.397 376.55 146.261 378.494C145.423 378.837 136.868 380.963 133.935 377.296C133.814 377.145 133.671 376.93 133.508 376.674C132.678 375.322 131.313 372.826 129.502 372.701C129.204 372.691 129.864 374.554 128.129 374.21C122.044 372.972 115.833 370.921 109.459 369.352C107.752 368.933 109.711 371.331 107.18 370.649C100.193 368.765 91.5798 365.155 84.7272 361.29C82.1997 359.853 84.6113 359.492 84.4837 359.265C82.5763 355.626 79.2769 357.53 78.1284 357.101C75.0088 355.917 72.3833 354.198 69.9498 352.203C67.6676 350.276 65.5532 348.208 62.8248 346.317C61.4585 345.36 61.3968 347.318 61.0504 347.219C57.4848 346.077 61.2754 345.543 59.7777 343.904C55.6003 339.293 50.3408 334.572 45.7969 329.76C44.1287 327.985 44.5797 331.251 43.0891 329.613C36.996 322.915 31.5903 314.781 27.9515 306.148C26.6545 303.01 25.4127 299.851 24.264 296.693C23.5732 294.783 25.381 295.336 25.4898 294.819C26.2678 291.241 21.6865 288.643 20.9998 287.848C17.8895 284.287 18.2701 282.145 16.4009 278.495C11.3866 268.515 6.10838 256.391 3.82684 241.717C2.49984 232.656 1.2228 223.063 0.624064 214.388C-0.698375 195.784 0.888993 178.866 6.2728 161.898C8.05609 156.361 9.88154 150.663 11.8707 144.6C12.3394 143.183 10.0884 143.998 10.4735 142.764C15.5752 126.833 22.8934 111.35 32.2603 95.9774C33.0406 94.7157 30.3816 95.5406 31.6061 93.4688C34.1101 89.2088 38.0046 84.1608 41.7348 80.6653C43.5468 78.9655 42.5455 82.4531 44.3379 80.7447C44.4752 80.6152 44.6127 80.4853 44.7505 80.355C48.3785 77.0083 51.9473 73.1601 55.158 69.2314C56.5727 67.4976 52.9644 68.7735 54.9131 66.6113C68.2276 51.9621 81.961 37.2067 101.447 26.4227C102.803 25.6942 105.896 28.0026 108.229 25.7172C107.899 24.7254 107.26 23.7139 106.781 22.7318C109.142 21.2186 111.598 19.7759 114.177 18.4289C141.49 4.82036 169.231 2.84626 196.404 2.54691C197.654 2.54499 195.468 0.617662 197.905 0.608099C199.949 0.604011 201.915 0.608946 203.945 0.631292C215.405 0.759991 226.774 0.909398 238.683 3.26974C240.066 3.545 239.125 6.898 243.242 6.65813C243.963 6.60312 250.155 6.62404 251.839 6.04568C252.068 5.95457 251.076 4.26145 253.087 4.40002C264.8 5.28558 277.307 7.23625 289.578 11.8872C291.569 12.664 288.912 13.6223 290.301 14.1889C293.316 15.4312 296.5 16.6668 299.765 18.1746C305.765 20.9526 311.934 23.5278 317.03 27.2165C321.961 30.8166 318.663 32.4605 320.162 36.4727C320.368 37.0249 323.681 38.8791 323.035 40.472C321.314 44.355 317.604 47.5748 315.984 51.8338C315.889 52.0588 316.088 52.3035 316.319 52.5251C316.552 52.7452 316.878 52.9921 316.746 52.9984C316.693 52.9844 316.649 52.9842 316.448 52.8606C316.353 52.8027 316.235 52.725 316.09 52.6187C315.934 52.503 315.643 52.2616 315.312 51.9262C315.228 51.8406 315.138 51.7466 315.044 51.6425C314.997 51.5904 314.949 51.5359 314.899 51.4785C314.875 51.4498 314.85 51.4204 314.824 51.3903C314.791 51.3503 314.74 51.2867 314.696 51.2311C314.337 50.7678 313.895 50.1467 313.445 49.1593C313.223 48.6652 313.002 48.0753 312.828 47.3671C312.742 47.0133 312.668 46.6302 312.615 46.2193C312.536 45.613 312.5 44.8148 312.57 44.0181C312.719 40.6585 315.308 37.2512 317.221 36.1329C318.356 35.4064 318.568 35.3665 319.038 35.1479C319.454 34.9707 319.812 34.8465 320.125 34.7496C320.751 34.5583 321.199 34.47 321.551 34.4053C322.247 34.2837 322.584 34.2564 322.79 34.2184C322.989 34.184 323.043 34.1528 322.967 34.1176C322.885 34.0844 322.685 34.0408 322.191 34.0368C321.672 34.0643 320.942 33.981 319.041 34.6288C318.801 34.7165 318.541 34.8213 318.258 34.951C318.103 35.0235 318.017 35.0617 317.776 35.1884C317.509 35.3299 317.228 35.493 316.935 35.6839C315.776 36.4326 314.338 37.7096 313.298 39.5925C312.238 41.4541 311.796 43.7798 311.911 45.5835C311.922 45.8108 311.94 46.0315 311.964 46.2451C311.978 46.3776 311.994 46.5042 312.011 46.6301C312.047 46.8813 312.089 47.1227 312.137 47.3538C312.233 47.8161 312.35 48.2369 312.476 48.6185C312.991 50.1448 313.584 51.0463 314.033 51.6976C314.162 51.8787 314.219 51.9586 314.277 52.0405C314.336 52.123 314.393 52.2014 314.449 52.2762C314.56 52.4256 314.664 52.5604 314.762 52.6832C314.958 52.9287 315.125 53.1272 315.267 53.2947C315.408 53.4599 315.452 53.5349 315.529 53.6387C315.826 54.0386 315.854 54.2085 315.835 54.3751C316.3 54.8137 313.288 53.9839 312.183 54.3244C311.439 54.5543 311.503 56.519 310.211 56.6362C308.907 56.7495 308.445 54.9015 306.337 54.7734C304.232 54.6645 304.141 56.7784 300.544 55.2839ZM166.402 158.8C170.243 159.847 170.192 153.832 166.15 155.882C165.954 155.993 166.197 158.755 166.402 158.8ZM232.203 460.613C228.724 457.069 224.972 460.131 227.415 462.83C229.834 465.516 233.272 461.689 232.203 460.613ZM275.146 468.277C270.799 465.203 268.24 473.326 273.737 472.767C274.056 472.738 275.4 468.456 275.146 468.277ZM306.75 30.7924C306.764 30.886 309.085 32.0788 309.172 32.0346C311.251 30.922 306.594 28.5286 306.75 30.7924ZM317.562 475.612C317.192 475.129 316.468 474.81 315.692 474.658L315.763 474.676C314.163 474.434 312.318 474.959 313.383 476.202C313.771 476.658 314.478 476.943 315.206 477.061L315.041 477.018C316.71 477.362 318.55 476.907 317.562 475.612ZM315.988 216.868C315.941 216.961 316.789 218.62 317.207 218.339C318.572 217.445 316.861 215.375 315.988 216.868ZM385.076 500.894C383.34 499.437 381.937 497.978 380.719 496.671L380.758 496.692C375.991 492.114 375.615 487.43 383.336 491.733C383.366 491.748 383.452 491.796 383.481 491.812C383.682 491.937 383.888 492.071 384.094 492.211C384.942 492.803 384.087 492.727 382.995 492.667C382.972 492.655 382.905 492.617 382.882 492.606C381.47 492.642 379.607 492.675 380.874 493.729C381.207 494.011 381.57 494.263 381.914 494.469C381.922 494.474 381.948 494.488 381.957 494.493C385.635 496.956 390.284 496.445 392.491 501.112C392.907 502.018 385.507 501.227 385.055 500.89C385.062 500.891 385.069 500.892 385.076 500.894ZM169.479 165.59C169.558 165.642 172.108 165.449 172.171 165.382C173.468 163.342 168.083 163.74 169.479 165.59ZM333.681 316.07C333.537 316.095 331.649 318.53 330.541 319.785C330.144 320.254 329.874 320.594 329.872 320.658C329.987 322.217 331.097 322.096 332.28 321.277C334.465 319.824 336.348 315.863 333.681 316.07ZM103.312 311.024C105.134 313.878 105.313 317.096 102.911 319.314C103.045 316.553 103.11 313.811 103.312 311.024Z" fill="#6153CC" style="mix-blend-mode:multiply"/>
</svg>
