<svg width="310" height="47" viewBox="0 0 310 47" fill="none" xmlns="http://www.w3.org/2000/svg">
<path d="M2.8763 24.1097C4.57094 23.7839 6.82078 24.0853 8.55108 24.5105C9.0871 24.6425 8.82924 25.2837 9.2022 25.4032C9.93657 25.6358 10.6072 25.3093 11.3325 25.5873C11.574 25.6824 11.2994 26.6967 11.5525 26.7734C12.939 27.1864 14.2316 26.8961 15.632 27.0709C22.5293 27.9318 29.3301 28.0484 36.3137 28.18C38.6198 28.2222 41.4591 28.9946 43.8083 28.465C44.0802 28.4025 43.8686 27.5284 43.917 27.4527C44.6888 26.2925 44.5101 28.0905 45.0619 28.2971C47.254 29.1121 49.6407 29.0494 51.6649 28.5714C52.5142 28.3659 51.5214 26.6727 52.4764 27.5956C52.5424 27.6578 52.384 28.6102 52.632 28.6934C53.1843 28.8814 54.21 28.6391 54.6207 28.6825C55.4404 28.7691 55.5659 28.7498 56.3271 28.6989C56.6114 28.6817 56.9029 28.6955 57.1911 28.7191C58.007 28.7809 58.8892 28.9046 59.676 28.6647C59.9039 28.592 59.4949 27.6675 59.8464 27.465C60.1996 27.2633 61.1862 27.2328 61.5444 27.4176C61.9018 27.6034 61.8526 28.3714 61.9322 28.5365C62.5994 29.9315 63.4958 27.7716 63.6312 27.7023C66.1938 26.5004 68.6689 27.2843 71.2325 26.8683C73.1739 26.5502 75.2069 25.8253 77.1018 25.5747C79.3617 25.2803 81.3652 25.5 83.5924 25.1173C83.8281 25.0782 83.4034 23.9918 83.6937 23.9417C84.2187 23.8515 84.7467 23.7714 85.2766 23.704C87.6232 23.4025 90.0526 23.2583 92.5532 23.5284C92.8571 23.5617 92.6259 24.6009 92.9391 24.6928C94.845 25.2365 98.012 26.7239 98.3909 22.2799C99.6361 22.2519 101.134 22.1851 102.37 22.8664C103.162 23.3054 102.655 24.4858 103.444 23.8881C103.622 23.7544 103.215 22.8605 103.494 22.7309C104.669 22.1857 106.062 22.2674 107.203 21.5816C107.434 21.4401 107.227 20.6131 107.272 20.4505C107.659 19.1304 108.98 20.9876 109.218 21.099C111.033 21.9231 112.156 21.2947 113.685 21.0712C114.04 21.0198 113.437 19.9623 113.773 19.8723C115.513 19.4214 117.367 19.2203 119.185 19.4452C119.589 19.4979 119.386 20.5143 119.587 20.5887C120.467 20.9059 120.367 19.0631 121.21 19.3333C121.387 19.3881 121.422 20.2248 121.466 20.3105C122.152 21.6558 122.255 19.5834 122.369 19.5204C123.806 18.68 125.111 20.6306 126.544 20.1195C126.715 20.0562 126.163 19.0719 126.659 18.9574C128.945 18.4256 131.382 18.1753 133.807 18.2444C134.871 18.2759 135.936 18.3666 136.978 18.5171C137.506 18.5921 137.22 19.4173 137.263 19.5109C137.947 20.9715 138.078 18.9063 138.238 18.8128C139.513 18.1276 140.901 19.7158 141.578 17.2114C147.262 17.5352 152.714 15.7601 158.401 17.5202C158.473 17.5402 158.422 18.5522 158.565 18.5876C160.296 19.025 159.853 17.4911 160.829 15.5021C161.072 15.0028 162.099 17.24 162.188 17.4029C162.511 18.0038 162.336 19.5168 162.437 19.6303C163.27 20.5185 162.776 15.595 163.807 15.516C163.84 15.5219 163.773 16.4399 163.866 16.5237C164.155 16.7871 164.393 16.4063 164.68 16.699C165.336 17.3767 165.731 19.7574 166.544 18.2926C166.646 18.1027 166.257 15.3184 167.184 15.3803C167.552 15.4076 169.168 15.2341 169.636 15.3795C170.104 15.5249 169.863 16.4509 169.898 16.4874C171.214 17.583 170.789 18.1136 171.543 19.8294C172.299 21.5381 171.793 17.359 172.004 16.8711C172.215 16.3846 173.19 17.2953 173.44 17.6188C173.688 17.9428 173.46 18.5379 173.671 18.7154C175.072 19.8731 174.069 16.5879 174.441 15.8874C175.316 14.2286 176.36 17.2708 177.308 17.4961C177.565 17.5569 177.3 16.8666 177.517 16.7812C178.376 16.4522 178.986 17.3758 179.91 16.3974C180.063 16.2378 180.696 14.2978 181.346 15.6203C181.438 15.8111 181.298 16.6046 181.689 16.7435C181.717 16.7535 181.746 16.7631 181.776 16.7724C182.379 16.9575 183.34 17.0137 183.89 16.7168C184.317 16.4861 183.696 15.255 184.289 15.6023C184.553 15.7575 184.158 16.5443 184.649 16.7736C185.145 17.0022 186.337 16.8674 186.784 16.8042C187.232 16.7403 186.905 15.7926 186.936 15.7244C187.119 15.3327 187.965 14.793 188.041 14.7882C191.925 14.3535 195.625 15.7295 199.368 14.9475C199.661 14.8877 199.399 13.8777 199.443 13.858C200.427 13.3658 199.798 16.1348 200.567 17.0003C200.335 14.9317 200.782 15.2807 201.483 15.0098C201.82 14.8776 201.584 14.0854 201.611 14.0012C202.049 12.7498 202.493 14.3057 202.608 14.6226C203.019 15.7888 203.308 14.3654 203.584 15.1452C203.86 15.9191 203.398 17.1164 204.081 17.0622C204.231 16.3082 203.612 14.3955 204.114 14.0511C206.02 12.7462 209.776 14.0803 211.361 14.1644C212.958 14.2463 213.44 14.0873 214.385 14.3133C216.071 14.7242 215.384 13.3107 216.397 12.6048C217.406 11.8997 217.055 15.469 217.237 16.225C217.415 16.9809 217.54 16.1894 217.738 16.6007C217.935 17.0119 217.569 17.547 217.997 17.6862C218.431 17.8249 219.538 16.4195 219.652 15.616C219.901 13.9133 219.293 12.1626 220.454 12.738C220.521 12.7723 220.349 13.7139 220.602 13.7977C222.593 14.4338 224.649 14.3944 226.638 14.9465C226.912 15.0239 226.715 16.0717 226.875 16.1285C228.529 16.7229 227.885 14.9975 228.693 13.0153C228.608 15.6101 229.158 17.1722 230.417 17.1307C231.166 17.1067 230.981 15.9833 231.428 15.1647C231.563 14.918 232.131 15.6684 232.201 15.1326C232.433 13.3811 231.843 11.4623 233.153 12.1736C233.211 12.2075 233.079 13.1668 233.277 13.2146C234.549 13.528 234.605 11.705 235.934 11.4112C236.98 11.1807 238.912 12.1737 240.126 12.2688C240.302 15.1747 241.396 14.4289 241.707 12.3919C242.486 12.415 243.321 12.2329 244.086 12.4437C244.352 12.515 244.258 13.3694 244.298 13.4572C244.933 14.8347 245.093 12.8583 245.251 12.7665C245.872 12.4385 246.491 12.3962 247.082 12.4013C248.171 12.4064 249.203 12.5706 250.228 11.5302C250.284 11.4718 250.172 9.45051 250.792 10.869C250.834 10.9669 250.355 11.943 251.183 11.9262C252.016 11.909 253.681 12.8213 254.717 11.7677C254.978 11.5129 255.485 9.80767 256.192 11.021C256.285 11.1861 256.266 11.7714 256.409 12.0805C256.869 13.0649 256.831 11.0134 257.434 12.6942C258.031 14.3753 259.024 15.575 260.048 14.2557C260.083 14.2168 260.167 12.5777 260.537 12.5618C261.12 12.5389 261.976 12.7808 262.579 12.6999C262.868 12.6606 262.566 11.6832 262.614 11.6591C264.479 10.8727 265.962 11.5965 268.087 11.7042C268.476 11.7262 269.375 10.2175 270.258 11.1829C271.242 12.2357 271.128 17.2514 272.859 15.7915C273.574 15.2011 273.462 8.87358 275.362 11.8267C276.265 11.3631 277.194 11.2186 278.134 11.1334L278.039 11.1474C279.697 11.1901 281.378 11.3424 282.92 10.3335C283.034 10.2619 283.089 8.47615 283.365 8.44901C283.772 8.41306 284.149 9.17261 284.45 9.16907C285.716 9.17316 286.684 8.25274 287.865 8.09892C288.317 8.0374 288.348 8.89709 288.888 8.82132C289.43 8.74362 289.522 7.57947 290.361 7.92974C290.991 8.19877 292.083 10.2719 292.872 10.3457C292.35 8.16365 292.854 8.08512 293.574 7.2852C293.712 7.13032 293.335 6.42192 293.39 6.30973C293.61 5.83604 294.066 6.38466 294.26 5.87967C294.307 5.75822 294.112 5.0172 294.138 4.87644C294.352 3.65188 295.641 5.08511 295.869 5.33305C296.344 5.85826 296.556 5.77238 296.743 5.64603C296.9 5.54402 297.032 5.41851 297.276 5.5589C297.821 5.87587 297.33 6.59054 297.9 6.71752C299.082 6.98063 300.393 6.49216 301.459 6.20576C301.884 6.08695 301.299 5.19576 301.353 5.15601C302.132 4.64921 303.345 5.39527 303.164 3.30636C305.449 8.09138 303.51 2.65448 305.051 3.22443C305.172 3.27156 306.143 5.56914 305.893 6.04734C305.64 6.52583 304.813 5.99115 304.474 6.70775C304.402 6.87436 304.405 9.33237 304.345 9.49985C303.884 10.8103 302.654 7.2919 302.555 7.10944C301.445 5.1463 301.31 7.80916 301.115 8.04563C300.267 9.12015 299.222 8.85955 298.506 9.64365C298.246 9.92393 298.309 10.7675 298.34 11.4774L298.373 11.4681C298.397 12.048 298.399 12.5391 298.184 12.564C296.583 12.7501 295.192 9.60206 294.499 12.8295C294.345 13.5181 295.317 16.0216 293.677 14.2761C293.573 14.1666 292.286 12.5129 292.093 13.8072C292.069 13.9704 292.254 14.7245 292.19 14.8072C291.752 15.3476 291.249 14.8317 290.729 15.2573C290.207 15.6835 289.595 16.2756 288.854 16.168C288.409 16.1045 287.584 14.801 287.316 14.4951C286.564 13.6106 286.301 15.3703 285.719 14.2255C285.142 13.073 285.432 11.0955 284.404 10.4774C284.751 12.465 285.066 14.5131 285.388 16.5172C283.331 16.8318 281.221 16.5263 278.983 16.8377C278.697 16.8779 279.094 17.9303 278.784 18.0007C278.731 18.0126 278.678 18.0227 278.625 18.0312L279.536 17.8984C278.476 18.2142 277.388 17.713 276.318 18.2068C275.456 18.6091 274.649 19.911 273.738 20.3493C272.791 18.1639 271.522 19.1504 270.479 19.0837C270.117 19.0612 270.055 18.4472 269.777 18.2828C268.733 17.6756 269.452 19.6357 269.235 19.9893C268.298 21.4971 267.604 16.9313 266.331 17.2069C266.266 17.2199 265.727 19.7666 265.63 19.9325C265.013 21.0142 265.405 19.0971 264.923 18.972C264.051 18.7419 263.398 18.2268 262.508 19.0547C262.244 19.3 261.739 20.9014 261.048 19.7848C260.959 19.6384 260.908 18.8255 260.845 18.7846C259.703 18.113 259.957 20.6564 259.446 21.5837C258.936 22.5107 257.808 20.8582 257.569 20.3724C256.935 19.1177 257.884 19.7727 257.899 19.6412C258.048 18.0793 257.402 18.4157 256.869 18.3427C256.521 15.8592 255.819 16.0862 256.319 18.2768C256.373 18.5161 256.751 18.2402 256.869 18.3427C256.677 20.8371 255.909 21.2365 254.795 19.0446C254.27 18.0175 254.517 16.7282 253.326 17.3175C252.78 17.5844 253.18 19.2773 252.736 19.798C251.701 20.9882 250.064 19.5437 248.913 19.9222C248.499 20.0592 249.013 20.9543 248.733 21.0804C248.499 21.1864 248.263 21.197 248.024 21.1756C247.49 21.1302 246.954 20.9284 246.42 21.2306C246.35 21.2716 246.624 22.2387 246.374 22.2755C244.458 22.5742 242.754 22.0751 240.782 22.195C239.824 22.2544 238.167 22.9047 237.175 22.8509C235.466 22.7653 233.315 21.433 231.898 21.8488C230.97 22.1159 231.226 23.094 230.854 23.7857C230.131 25.1266 228.668 22.8481 228.465 22.494C228.46 22.4823 229.254 22.2144 228.803 21.7258C228.508 20.6796 228.474 22.4891 228.465 22.494C228.327 22.2659 226.729 22.1093 226.412 22.3117C226.242 22.4222 226.379 23.3545 226.29 23.3944C224.188 24.322 222.063 24.647 219.886 24.3003C219.847 24.283 219.86 23.2333 219.77 23.2056C218.5 22.7928 217.76 24.1082 216.762 24.9141C215.766 25.7196 214.952 25.5013 214.253 23.7319C213.499 23.9932 212.341 23.2514 211.682 22.8C211.024 22.3486 211.033 24.3914 210.979 24.4343C209.286 25.8108 208.216 24.6964 206.403 24.6128C205.526 24.5703 203.85 24.962 202.923 25.2412C202.204 25.4641 201.731 25.0138 201.068 25.3613C200.978 25.4078 201.128 26.3088 201.102 26.3454C200.41 27.4778 200.638 25.2382 200.457 24.8521C199.803 23.448 199.405 22.7032 198.471 23.4446C198.25 23.6149 197.823 26.8484 197.43 27.0626C196.919 27.3353 197.04 26.178 196.504 26.4933C196.458 26.5193 196.517 27.224 196.171 27.2168C194.588 27.1916 192.83 26.9083 191.186 27.1075C190.961 27.1321 191.338 28.2278 191.013 28.2818C189.517 28.5322 187.842 28.6283 186.319 28.2327C185.941 28.1321 186.103 27.3298 186.003 27.1043C185.386 25.7413 184.886 27.8436 184.775 27.8927C184.115 28.2011 183.476 28.3269 182.842 28.3613C180.928 28.4666 179.124 27.7532 177.058 28.5907C176.908 28.6556 175.9 30.9457 175.213 29.1109C175.165 28.989 174.486 27.11 174.128 28.462C174.106 28.5466 174.514 29.5095 173.934 29.4551C173.355 29.4009 172.489 30.1357 171.62 29.1102C171.346 28.7872 170.608 26.9159 169.99 28.5022C169.952 28.6126 169.076 32.1585 168.486 29.8043C168.389 29.4168 168.267 26.8872 167.484 28.2489C167.335 28.5127 167.683 29.0524 167.266 29.4378C166.63 30.0314 165.676 29.4235 164.931 30.6105C164.8 30.8205 164.307 32.5807 163.715 31.317C163.623 31.1191 163.707 30.2653 163.439 30.1905C162.157 29.8312 160.901 30.4914 159.596 30.002C159.135 29.8303 159.261 28.4508 158.77 28.1202C158.278 27.7898 157.314 27.5086 156.876 28.1676C156.436 28.8271 157.129 30.9587 156.415 31.1872C153.315 32.1793 150.102 31.1456 146.971 31.2222C146.505 31.2336 146.954 31.9774 146.276 32.0501C143.765 32.3185 139.574 33.4507 137.265 32.0424C135.41 30.9123 137.457 29.6706 136.082 29.2799C135.72 29.1795 135.436 29.9006 135.234 30.5951C135.07 31.1774 134.958 31.7414 134.894 31.7856C133.525 32.7639 132.369 31.7835 131.071 32.3059C130.807 32.4139 131.214 33.3941 130.988 33.4749C130.21 33.7606 129.309 33.425 128.545 33.6199C128.208 33.709 128.384 34.4754 128.059 34.4617C127.276 34.4388 126.561 34.2122 125.701 33.5992C125.622 33.5433 125.938 32.5096 125.363 32.5599C124.442 32.6428 123.185 32.1035 122.237 33.0101C121.958 33.2819 122.227 35.0526 121.357 33.9381C121.175 33.7054 121.017 31.5524 120.52 33.5135C120.437 33.8393 119.507 36.527 118.6 35.0373C118.361 34.6453 117.638 32.9795 117.302 33.3145C117.258 33.3664 117.619 34.2824 117.319 34.4263C116.26 34.9171 115.077 35.0075 113.982 35.4938C113.69 35.6256 114.307 36.5327 113.866 36.6977C112.656 37.1527 111.045 37.1631 109.764 37.0595C109.291 37.0197 109.47 36.154 109.422 36.0709C108.652 34.719 108.66 36.7148 108.502 36.8574C107.516 37.718 106.53 36.9428 105.552 37.3518C105.282 37.4621 105.633 38.3565 105.591 38.4484C105.146 39.351 105.303 37.6154 104.907 37.4918C103.792 37.141 102.656 37.4025 101.636 37.6883C101.258 37.7952 101.864 38.801 101.522 38.8846C99.5122 39.3977 97.3575 39.6303 95.2457 39.3384C94.8461 39.2817 94.9634 38.4161 94.8555 38.2384C94.1147 36.9937 93.5803 38.9192 93.4162 39.1188C92.6911 40.0266 92.2469 39.3401 91.521 39.5803C90.2084 40.0156 88.7511 40.3017 87.2267 40.4823C84.9962 40.7463 82.5744 40.8375 80.4986 40.9704C76.2276 41.2518 72.6872 41.0632 68.4299 41.8958C68.1589 41.9475 68.595 43.0117 68.3624 43.0705C65.3384 43.7805 62.2049 43.7339 59.0501 44.3422C58.7898 44.3901 59.2641 45.41 58.8465 45.5222C58.7827 45.5398 58.7175 45.5563 58.6509 45.5716C57.8668 45.7588 56.8874 45.7642 56.0703 45.5122C55.6606 45.3799 56.126 44.4345 55.7146 44.3197C54.7373 44.0515 53.716 44.0477 52.761 44.2817C52.3573 44.3834 53.0477 45.4217 52.5147 45.4697C48.8601 45.8191 45.3196 46.205 41.5948 44.9941C41.3389 44.9109 41.0018 42.7264 40.4986 43.174C40.4895 43.7855 40.5278 44.5024 40.5432 45.1547C35.3042 45.7699 30.0743 45.2325 24.807 45.3077C24.5846 45.3111 25.0114 46.4615 24.5807 46.474C22.0915 46.5471 19.6788 46.9501 17.0929 45.8672C16.836 45.7613 16.9117 43.7087 16.1714 44.0399C16.0403 44.1004 14.9265 44.4046 14.6511 44.8568C14.613 44.925 14.8448 45.8759 14.4819 45.9134C12.3805 46.1142 10.158 45.9462 8.03938 45.3989C7.69661 45.3087 8.04169 44.2837 7.79796 44.2106C6.07758 43.6997 4.21069 44.4985 2.55055 43.5848C1.44427 42.969 1.85556 41.205 1.25423 39.4741C1.16834 39.23 0.490023 39.1929 0.455834 38.1842C0.364554 35.648 0.680492 32.8702 0.544401 30.167C0.513149 29.5849 -0.349002 30.2124 0.160825 28.8051C0.195096 28.711 0.825813 28.243 0.98364 27.765C1.09235 27.4346 0.891575 26.4095 1.11374 25.9863C1.33602 25.5634 1.5889 26.4223 1.9472 25.9238C2.31037 25.419 2.13756 24.2535 2.8763 24.1097ZM208.698 20.7885C208.054 19.8406 208.154 23.4294 208.749 22.5387C208.778 22.4914 208.731 20.835 208.698 20.7885ZM280.801 13.805C279.78 12.3487 279.483 14.723 280.236 15.8641C281.009 16.9983 281.124 14.2437 280.801 13.805ZM288.802 11.1176C287.631 10.1016 288.576 15.1048 289.344 13.8786C289.389 13.8088 288.872 11.1761 288.802 11.1176ZM3.94083 38.9612C3.93149 38.9137 3.45003 38.872 3.43962 38.9193C3.19345 40.0616 4.15817 40.1444 3.94083 38.9612ZM296.363 7.91367C295.905 7.32625 295.319 8.30828 295.887 9.04142C296.345 9.63117 296.937 8.64405 296.363 7.91367ZM177.483 19.2394C177.469 19.187 177.121 19.1685 177.154 19.4691C177.26 20.4374 177.716 20.1223 177.483 19.2394ZM309.439 3.6133C307.465 4.17886 304.873 0.654421 307.05 0.3349C307.448 0.273998 306.741 1.88941 307.346 2.06367C308.455 2.37769 308.061 -0.302956 309.449 0.666669C309.704 0.844437 309.558 3.58944 309.438 3.62006C309.439 3.61781 309.439 3.61556 309.439 3.6133ZM208.133 16.501C208.119 16.4542 207.636 16.4343 207.627 16.482C207.427 17.6334 208.398 17.6741 208.133 16.501ZM157.196 18.5942C157.161 18.4953 156.049 18.4837 156.018 18.5795C155.58 20.4808 157.833 20.5095 157.196 18.5942ZM240.15 12.345C240.588 11.1656 241.181 10.9869 241.704 12.3906C241.182 12.3537 240.672 12.3794 240.15 12.345Z" fill="#6153CC"/>
</svg>
